<svg width="269" height="815" viewBox="0 0 269 815" fill="none" xmlns="http://www.w3.org/2000/svg">
<path d="M94.9998 0.999262L173.221 14.8039C188.885 17.5684 203.758 23.7153 216.803 32.8165L230.543 42.4026C261.729 64.1605 275.095 103.702 263.506 139.919V139.919C255.59 164.658 236.998 184.543 212.847 194.103L158.76 215.512C106.107 236.354 84.1214 298.997 112.2 348.173V348.173C134.849 387.839 125.358 438.08 89.8006 466.751L25.0003 519V519C-19.5834 554.955 2.71574 626.918 59.818 631.363L68 632L135 644L155.184 647.364C236.486 660.914 260.945 765.918 194 814V814" stroke="#4A7700"/>
</svg>
