<svg width="489" height="831" viewBox="0 0 489 831" fill="none" xmlns="http://www.w3.org/2000/svg">
<path d="M206 11.9993L284.221 25.8039C299.885 28.5684 314.758 34.7153 327.803 43.8165L341.543 53.4026C372.729 75.1605 386.095 114.702 374.506 150.919V150.919C366.59 175.658 347.998 195.543 323.847 205.103L269.76 226.512C217.107 247.354 195.121 309.997 223.2 359.173V359.173C245.849 398.839 236.358 449.08 200.801 477.751L136 530V530C91.4166 565.955 113.716 637.918 170.818 642.363L179 643L246 655L266.184 658.364C347.486 671.914 371.945 776.918 305 825V825" stroke="#4A7700"/>
<circle cx="203" cy="9" r="9" fill="#4A7700"/>
<circle cx="245" cy="241" r="9" fill="#4A7700"/>
<circle cx="160" cy="639" r="9" fill="#4A7700"/>
<circle cx="308" cy="821" r="9" fill="#4A7700"/>
</svg>
